<svg xmlns="http://www.w3.org/2000/svg" width="87" height="95" viewBox="0 0 87 95" fill="none"><path d="M44.1278 0.359985C44.9709 1.09103 44.227 2.41608 41.2017 5.56876C32.1756 14.8897 16.8509 40.8878 11.2964 56.3771C10.4037 58.8444 9.75894 60.9461 9.85813 61.0375C9.95732 61.1746 11.9411 59.8039 14.2224 58.0676C17.9916 55.1891 18.6363 54.458 20.9177 50.4372C22.3063 47.9699 24.2405 44.8173 25.1828 43.4465C26.1747 42.0758 27.9601 39.1516 29.1007 36.9584C30.291 34.7653 32.7707 31.0643 34.6057 28.734C36.4903 26.4038 40.557 20.9209 43.7311 16.626C49.484 8.72143 50.6247 7.71622 52.658 8.44728C53.7491 8.81281 52.9556 10.3663 49.236 15.3009C37.8789 30.3332 26.8194 46.7363 21.3144 56.6969C20.0746 58.9814 19.3307 62.0427 19.1323 65.8351C19.0331 68.1196 19.0827 68.3481 19.9754 68.211C22.8518 67.7541 28.0592 63.9617 29.9438 60.8548C38.2757 47.4216 45.814 36.4558 50.3271 31.3384C51.6166 29.8306 54.8402 25.6271 57.4687 21.9718C63.0233 14.25 70.3136 5.93428 71.9998 5.3403C72.7933 5.02046 73.6364 5.06615 74.5291 5.43168L75.8186 5.97997L72.8925 8.8585C71.3055 10.4577 67.8835 14.3871 65.3542 17.6312C62.7753 20.9209 58.7085 26.0383 56.3776 29.0539C50.8726 35.9989 44.7725 44.6345 39.5155 52.8132C37.2342 56.3314 34.5065 60.4892 33.465 61.997C31.5804 64.7385 31.5309 64.9213 31.6796 68.3938L31.8284 72.0033L35.2504 66.7946C38.722 61.4944 46.8059 51.6252 53.1044 45C67.09 30.2419 77.852 20.2355 81.8195 18.3165C84.0017 17.2656 84.2496 17.2199 85.4895 17.8596C87.1261 18.7277 87.5229 19.6872 86.2334 19.6872C85.1919 19.6872 80.2325 23.0227 76.3641 26.3581C70.1648 31.7496 59.6508 42.3956 54.8898 48.0613C52.0629 51.3967 48.5913 55.4632 47.2027 56.971C45.8636 58.5245 42.144 63.6419 39.0196 68.3024L33.3162 76.8009L30.6382 77.7147C28.3072 78.5371 23.3478 81.3243 10.602 89.0461C8.76705 90.1426 6.43612 91.9703 5.39464 93.0669C3.90681 94.7574 3.31168 95.0773 2.12141 94.9859C-0.110329 94.7574 -0.507088 93.7522 0.583992 90.8737C1.3279 88.909 1.52628 86.9443 1.57587 79.9993C1.72466 67.3886 2.07182 64.9213 4.0556 62.1798C4.94829 60.9461 6.08896 58.9357 6.53531 57.7478C8.41989 52.7675 9.70935 49.9803 15.4623 38.649C19.9754 29.6479 22.8023 24.8046 26.9682 18.7734C37.4822 3.51266 42.144 -1.46765 44.1278 0.359985ZM10.3541 65.4239C6.13856 69.3076 6.08896 69.4447 5.49383 78.0345L5.14667 83.1519L6.68409 84.5227C7.5272 85.2994 8.41989 85.9391 8.66787 85.9391C8.91584 85.9391 10.2549 85.2537 11.5443 84.4313C12.8834 83.5632 16.603 81.4157 19.8266 79.5423C26.6706 75.6129 28.1088 74.2879 28.1088 71.7292C28.1088 70.5869 27.8609 69.8102 27.4145 69.6731C26.373 69.3076 21.9591 71.2266 20.3721 72.7344C18.8347 74.2422 16.7517 74.4707 15.4623 73.3284C14.768 72.6887 14.7184 71.8663 15.0159 67.2972L15.3631 62.0427L13.7761 62.9109C12.8834 63.3678 11.346 64.51 10.3541 65.4239Z" fill="#FCAD45"></path></svg>