<svg xmlns="http://www.w3.org/2000/svg" width="85" height="73" viewBox="0 0 85 73" fill="none"><path d="M15.9038 71.4798C13.5948 70.8692 5.83398 24.2388 2.24219 1C4.93603 1 82.6726 44.5092 83.4423 47.8169C84.212 51.1246 18.7901 72.2431 15.9038 71.4798Z" stroke="#FCAD45" stroke-width="2"></path><path d="M5.82422 11.0435L9.7597 5.06765" stroke="#FCAD45" stroke-width="2"></path><path d="M5.82812 6.68384L7.77206 3.87205" stroke="#FCAD45" stroke-width="2"></path><path d="M3.65039 5.44189L5.59432 2.6301" stroke="#FCAD45" stroke-width="2"></path><path d="M13.0703 10.9404L15.0142 8.12864" stroke="#FCAD45" stroke-width="2"></path><path d="M10.8926 9.69849L12.8365 6.8867" stroke="#FCAD45" stroke-width="2"></path><path d="M22.1621 15.9978L24.106 13.186" stroke="#FCAD45" stroke-width="2"></path><path d="M19.9844 14.7559L21.9283 11.9441" stroke="#FCAD45" stroke-width="2"></path><path d="M30.9199 20.6123L32.8639 17.8005" stroke="#FCAD45" stroke-width="2"></path><path d="M28.7422 19.3704L30.6861 16.5586" stroke="#FCAD45" stroke-width="2"></path><path d="M39.6797 25.2275L41.6236 22.4157" stroke="#FCAD45" stroke-width="2"></path><path d="M37.502 23.9856L39.4459 21.1738" stroke="#FCAD45" stroke-width="2"></path><path d="M49.1953 30.0217L51.1392 27.2099" stroke="#FCAD45" stroke-width="2"></path><path d="M47.0176 28.7798L48.9615 25.968" stroke="#FCAD45" stroke-width="2"></path><path d="M57.9043 34.9895L59.8482 32.1777" stroke="#FCAD45" stroke-width="2"></path><path d="M55.7266 33.7476L57.6705 30.9358" stroke="#FCAD45" stroke-width="2"></path><path d="M66.6172 39.957L68.5611 37.1452" stroke="#FCAD45" stroke-width="2"></path><path d="M64.4395 38.7151L66.3834 35.9033" stroke="#FCAD45" stroke-width="2"></path><path d="M75.3262 44.9231L77.2701 42.1113" stroke="#FCAD45" stroke-width="2"></path><path d="M73.1504 43.6814L75.0943 40.8696" stroke="#FCAD45" stroke-width="2"></path><path d="M14.7734 15.7034L18.7089 9.72756" stroke="#FCAD45" stroke-width="2"></path><path d="M23.7207 20.3633L27.6562 14.3875" stroke="#FCAD45" stroke-width="2"></path><path d="M32.6211 25.3752L36.5566 19.3994" stroke="#FCAD45" stroke-width="2"></path><path d="M41.5684 30.0354L45.5038 24.0596" stroke="#FCAD45" stroke-width="2"></path><path d="M50.4688 35.0476L54.4042 29.0718" stroke="#FCAD45" stroke-width="2"></path><path d="M59.3691 40.0596L63.3046 34.0838" stroke="#FCAD45" stroke-width="2"></path><path d="M67.8555 44.7195L71.791 38.7437" stroke="#FCAD45" stroke-width="2"></path><path d="M77.2168 50.6909L81.1523 44.7151" stroke="#FCAD45" stroke-width="2"></path></svg>